 General
      Complete name : Amadeus.Director's.Cut.1984.BRRip.H264.AAC.5.1ch.Gopo.mp4
      Format : MPEG-4
      Format profile : Base Media
      Codec ID : isom
      File size : 2.80 GiB
      Duration : 3h 0mn
      Overall bit rate : 2 219 Kbps
      Encoded date : UTC 2009-12-18 00:17:50
      Tagged date : UTC 2009-12-18 00:17:50
      Writing application : Yamb 2.1.0.0 [http://yamb.unite-video.com]
   Video #2
      ID : 2
      Format : AVC
      Format/Info : Advanced Video Codec
      Format profile : High@L4.1
      Format settings, CABAC : Yes
      Format settings, ReFrames : 2 frames
      Codec ID : avc1
      Codec ID/Info : Advanced Video Coding
      Duration : 3h 0mn
      Bit rate mode : Variable
      Bit rate : 1 857 Kbps
      Maximum bit rate : 6 793 Kbps
      Width : 1 280 pixels
      Height : 528 pixels
      Display aspect ratio : 2.40:1
      Frame rate mode : Constant
      Frame rate : 23.976 fps
      Resolution : 24 bits
      Colorimetry : 4:2:0
      Scan type : Progressive
      Bits/(Pixel*Frame) : 0.115
      Stream size : 2.34 GiB (84%)
      Writing library : x264 core 79 r1360 528c100
      Encoding settings : cabac=1 / ref=2 / deblock=1:0:0 / analyse=0x3:0x113 / me=umh / subme=8 / psy=1 / psy_rd=1.0:0.0 / mixed_ref=1 / me_range=16 / chroma_me=1 / trellis=2 / 8x8dct=1 / cqm=0 / deadzone=21,11 / chroma_qp_offset=-2 / threads=1 / nr=0 / decimate=1 / mbaff=0 / constrained_intra=0 / bframes=3 / b_pyramid=0 / b_adapt=2 / b_bias=0 / direct=3 / wpredb=1 / wpredp=2 / keyint=250 / keyint_min=25 / scenecut=40 / rc_lookahead=30 / rc=2pass / mbtree=1 / bitrate=1857 / ratetol=1.0 / qcomp=0.50 / qpmin=10 / qpmax=51 / qpstep=4 / cplxblur=20.0 / qblur=0.5 / vbv_maxrate=24000 / vbv_bufsize=24000 / ip_ratio=1.10 / aq=1:1.00
      Encoded date : UTC 2009-12-16 03:43:17
      Tagged date : UTC 2009-12-18 00:20:25
   Audio #1
      ID : 1
      Format : AAC
      Format/Info : Advanced Audio Codec
      Format version : Version 4
      Format profile : LC
      Format settings, SBR : No
      Codec ID : 40
      Duration : 3h 0mn
      Bit rate mode : Variable
      Bit rate : 352.8 Kbps
      Maximum bit rate : 469 Kbps
      Channel(s) : 6 channels
      Channel positions : Front: L C R, Rear: L R, LFE
      Sampling rate : 48.0 KHz
      Resolution : 16 bits
      Stream size : 463 MiB (16%)
      Encoded date : UTC 2009-12-18 00:17:50
      Tagged date : UTC 2009-12-18 00:20:25	Sample : YES
	Subtitle : English,Romanian

PLOT

Antonio Salieri believes that Mozart's music is divine. He wishes he was himself as good a musician as Mozart so that he can praise the Lord through composing. But he can't understand why God favored Mozart, such a vulgar creature, to be his instrument. Salieri's envy has made him an enemy of God whose greatness was evident in Mozart. He is set to take revenge.
Director: Milos Forman
CASTING 
     
      F. Murray Abraham	... 	Antonio Salieri
	Tom Hulce	... 	Wolfgang Amadeus Mozart
	Elizabeth Berridge	... 	Constanze Mozart
	Roy Dotrice	... 	Leopold Mozart
	Simon Callow	... 	Emanuel Schikaneder / Papageno in 'The Magic Flute'
	Christine Ebersole	... 	Katerina Cavalieri / Constanza in 'Abduction from the Seraglio'
	Jeffrey Jones	... 	Emperor Joseph II
	Charles Kay	... 	Count Orsini-Rosenberg
	Kenneth McMillan	... 	Michael Schlumberg (2002 Director's Cut)
	Kenny Baker	... 	Parody Commendatore
	Lisabeth Bartlett	... 	Papagena
	Barbara Bryne	... 	Frau Weber
	Martin Cavina	... 	Young Salieri (as Martin Cavani)
	Roderick Cook	... 	Count Von Strack
	Milan Demjanenko	... 	Karl Mozart

SOURCE: Amadeus.DirCut.1984.720p.BluRay.x264-ESiR.mkv

Notes: For best performance I suggest you to use KMPlayer(find it with google) for playback
I haven't tested the movies on a PS3 or Xbox or other devices than PC because I don't own one of them but feel free to test them if you have the oportunity.
